<svg width="128" height="128" viewBox="0 0 128 128" fill="none" xmlns="http://www.w3.org/2000/svg">
<g clip-path="url(#clip0_1_20)">
<rect width="128" height="128" fill="white"/>
<rect width="128" height="128" fill="url(#paint0_linear_1_20)"/>
<path d="M44.5983 81C44.1289 81 43.7449 80.8507 43.4463 80.552C43.1476 80.2533 42.9983 79.8693 42.9983 79.4V45.096H31.3503C30.9236 45.096 30.5609 44.9467 30.2623 44.648C29.9636 44.3493 29.8143 43.9867 29.8143 43.56V37.8C29.8143 37.3307 29.9636 36.9467 30.2623 36.648C30.5609 36.3493 30.9236 36.2 31.3503 36.2H64.8863C65.3556 36.2 65.7396 36.3493 66.0382 36.648C66.3369 36.9467 66.4863 37.3307 66.4863 37.8V43.56C66.4863 43.9867 66.3369 44.3493 66.0382 44.648C65.7396 44.9467 65.3556 45.096 64.8863 45.096H53.3023V79.4C53.3023 79.8693 53.1529 80.2533 52.8543 80.552C52.5556 80.8507 52.1716 81 51.7023 81H44.5983ZM81.0363 81.64C76.1296 81.64 72.2256 80.2747 69.3243 77.544C66.4656 74.8133 64.9509 70.8453 64.7803 65.64C64.7803 65.2987 64.7803 64.8507 64.7803 64.296C64.7803 63.6987 64.7803 63.2293 64.7803 62.888C64.9509 59.6027 65.6976 56.7867 67.0203 54.44C68.3429 52.0507 70.1989 50.2373 72.5883 49C74.9776 47.72 77.7723 47.08 80.9722 47.08C84.5563 47.08 87.5429 47.8267 89.9323 49.32C92.3643 50.7707 94.1776 52.776 95.3723 55.336C96.6096 57.8533 97.2283 60.7547 97.2283 64.04V65.512C97.2283 65.9387 97.0576 66.3013 96.7163 66.6C96.4176 66.8987 96.0549 67.048 95.6283 67.048H74.7003C74.7003 67.0907 74.7003 67.176 74.7003 67.304C74.7003 67.3893 74.7003 67.4747 74.7003 67.56C74.7429 68.9253 74.9989 70.184 75.4683 71.336C75.9803 72.4453 76.6843 73.3413 77.5803 74.024C78.5189 74.7067 79.6283 75.048 80.9083 75.048C81.9749 75.048 82.8496 74.8987 83.5323 74.6C84.2149 74.3013 84.7696 73.9387 85.1963 73.512C85.6656 73.0853 86.0069 72.7227 86.2203 72.424C86.6043 71.9973 86.9029 71.7413 87.1163 71.656C87.3723 71.528 87.7563 71.464 88.2683 71.464H94.9243C95.3509 71.464 95.6923 71.592 95.9482 71.848C96.2469 72.0613 96.3749 72.3813 96.3323 72.808C96.2896 73.4907 95.9269 74.344 95.2443 75.368C94.6043 76.3493 93.6443 77.3307 92.3643 78.312C91.0843 79.2507 89.4843 80.04 87.5643 80.68C85.6869 81.32 83.5109 81.64 81.0363 81.64ZM74.7003 61.224H87.2443V61.096C87.2443 59.56 86.9883 58.2373 86.4763 57.128C86.0069 55.976 85.3029 55.08 84.3643 54.44C83.4256 53.8 82.2949 53.48 80.9722 53.48C79.6496 53.48 78.5189 53.8 77.5803 54.44C76.6416 55.08 75.9163 55.976 75.4043 57.128C74.9349 58.2373 74.7003 59.56 74.7003 61.096V61.224Z" fill="white"/>
<path d="M16.3706 27.16C15.592 27.16 14.9306 27.016 14.3866 26.728C13.8533 26.44 13.4426 26.072 13.1546 25.624C12.8666 25.1653 12.712 24.6907 12.6906 24.2C12.68 24.104 12.7066 24.0293 12.7706 23.976C12.8346 23.9227 12.9146 23.896 13.0106 23.896H13.3146C13.4 23.896 13.4746 23.9173 13.5386 23.96C13.6133 24.0027 13.672 24.104 13.7146 24.264C13.832 24.7227 14.024 25.096 14.2906 25.384C14.568 25.672 14.888 25.88 15.2506 26.008C15.6133 26.136 15.9866 26.2 16.3706 26.2C16.8933 26.2 17.368 26.0933 17.7946 25.88C18.232 25.6667 18.5786 25.352 18.8346 24.936C19.0906 24.52 19.2186 24.0133 19.2186 23.416C19.2186 22.8613 19.0906 22.392 18.8346 22.008C18.5786 21.6133 18.232 21.3147 17.7946 21.112C17.368 20.8987 16.8933 20.792 16.3706 20.792C15.976 20.792 15.6506 20.84 15.3946 20.936C15.1386 21.032 14.9253 21.144 14.7546 21.272C14.584 21.4 14.4293 21.512 14.2906 21.608C14.152 21.704 13.9973 21.752 13.8266 21.752H13.5386C13.4426 21.752 13.3573 21.72 13.2826 21.656C13.208 21.5813 13.176 21.496 13.1866 21.4L13.6666 16.168C13.6773 16.0507 13.7093 15.96 13.7626 15.896C13.8266 15.832 13.912 15.8 14.0186 15.8H19.2346C19.3413 15.8 19.4266 15.832 19.4906 15.896C19.5546 15.96 19.5866 16.0453 19.5866 16.152V16.408C19.5866 16.5147 19.5546 16.6 19.4906 16.664C19.4266 16.728 19.3413 16.76 19.2346 16.76H14.6426L14.3066 20.376C14.424 20.3013 14.648 20.1947 14.9786 20.056C15.3093 19.9067 15.7733 19.832 16.3706 19.832C16.904 19.832 17.4 19.912 17.8586 20.072C18.328 20.2213 18.7386 20.4507 19.0906 20.76C19.4533 21.0587 19.7306 21.432 19.9226 21.88C20.1253 22.3173 20.2266 22.8293 20.2266 23.416C20.2266 24.248 20.0506 24.9413 19.6986 25.496C19.3573 26.0507 18.8933 26.4667 18.3066 26.744C17.7306 27.0213 17.0853 27.16 16.3706 27.16ZM22.2309 27C22.1242 27 22.0389 26.968 21.9749 26.904C21.9109 26.84 21.8789 26.7547 21.8789 26.648V26.408C21.8789 26.3013 21.9055 26.2 21.9589 26.104C22.0229 25.9973 22.1295 25.8747 22.2789 25.736L26.4229 21.592C26.8282 21.2187 27.1375 20.8933 27.3509 20.616C27.5642 20.3387 27.7082 20.0667 27.7829 19.8C27.8682 19.5227 27.9109 19.2187 27.9109 18.888C27.9109 18.1733 27.7029 17.6133 27.2869 17.208C26.8815 16.8027 26.3002 16.6 25.5429 16.6C25.0629 16.6 24.6469 16.696 24.2949 16.888C23.9429 17.08 23.6655 17.352 23.4629 17.704C23.2602 18.0453 23.1269 18.4453 23.0629 18.904C23.0522 19.032 23.0042 19.128 22.9189 19.192C22.8335 19.2453 22.7589 19.272 22.6949 19.272H22.3749C22.2682 19.272 22.1829 19.2453 22.1189 19.192C22.0655 19.128 22.0389 19.0533 22.0389 18.968C22.0495 18.6053 22.1242 18.232 22.2629 17.848C22.4015 17.4533 22.6095 17.0907 22.8869 16.76C23.1749 16.4293 23.5375 16.1627 23.9749 15.96C24.4122 15.7467 24.9349 15.64 25.5429 15.64C26.3535 15.64 27.0042 15.7947 27.4949 16.104C27.9962 16.4133 28.3589 16.8133 28.5829 17.304C28.8069 17.7947 28.9189 18.3227 28.9189 18.888C28.9189 19.3253 28.8549 19.7307 28.7269 20.104C28.5989 20.4667 28.4069 20.824 28.1509 21.176C27.8949 21.5173 27.5695 21.8693 27.1749 22.232L23.4309 26.04H28.7909C28.9082 26.04 28.9989 26.072 29.0629 26.136C29.1269 26.2 29.1589 26.2907 29.1589 26.408V26.648C29.1589 26.7547 29.1269 26.84 29.0629 26.904C28.9989 26.968 28.9082 27 28.7909 27H22.2309Z" fill="white"/>
<path d="M27.8284 104C27.695 104 27.5817 103.96 27.4884 103.88C27.4084 103.787 27.3684 103.673 27.3684 103.54V91.78H23.5284C23.395 91.78 23.2817 91.74 23.1884 91.66C23.1084 91.5667 23.0684 91.4533 23.0684 91.32V90.48C23.0684 90.3333 23.1084 90.22 23.1884 90.14C23.2817 90.0467 23.395 90 23.5284 90H33.1684C33.315 90 33.4284 90.0467 33.5084 90.14C33.6017 90.22 33.6484 90.3333 33.6484 90.48V91.32C33.6484 91.4533 33.6017 91.5667 33.5084 91.66C33.4284 91.74 33.315 91.78 33.1684 91.78H29.3484V103.54C29.3484 103.673 29.3017 103.787 29.2084 103.88C29.1284 103.96 29.015 104 28.8684 104H27.8284ZM37.8563 104.2C36.483 104.2 35.3897 103.78 34.5763 102.94C33.763 102.087 33.3163 100.927 33.2363 99.46C33.223 99.2867 33.2163 99.0667 33.2163 98.8C33.2163 98.52 33.223 98.2933 33.2363 98.12C33.2897 97.1733 33.5097 96.3467 33.8963 95.64C34.283 94.92 34.8097 94.3667 35.4763 93.98C36.1563 93.5933 36.9497 93.4 37.8563 93.4C38.8697 93.4 39.7163 93.6133 40.3963 94.04C41.0897 94.4667 41.6163 95.0733 41.9763 95.86C42.3363 96.6467 42.5163 97.5667 42.5163 98.62V98.96C42.5163 99.1067 42.4697 99.22 42.3763 99.3C42.2963 99.38 42.1897 99.42 42.0563 99.42H35.1363C35.1363 99.4333 35.1363 99.46 35.1363 99.5C35.1363 99.54 35.1363 99.5733 35.1363 99.6C35.163 100.147 35.283 100.66 35.4963 101.14C35.7097 101.607 36.0163 101.987 36.4163 102.28C36.8163 102.573 37.2963 102.72 37.8563 102.72C38.3363 102.72 38.7363 102.647 39.0563 102.5C39.3763 102.353 39.6363 102.193 39.8363 102.02C40.0363 101.833 40.1697 101.693 40.2363 101.6C40.3563 101.427 40.4497 101.327 40.5163 101.3C40.583 101.26 40.6897 101.24 40.8363 101.24H41.7963C41.9297 101.24 42.0363 101.28 42.1163 101.36C42.2097 101.427 42.2497 101.527 42.2363 101.66C42.223 101.86 42.1163 102.107 41.9163 102.4C41.7163 102.68 41.4297 102.96 41.0563 103.24C40.683 103.52 40.2297 103.753 39.6963 103.94C39.163 104.113 38.5497 104.2 37.8563 104.2ZM35.1363 98.04H40.6163V97.98C40.6163 97.38 40.503 96.8467 40.2763 96.38C40.063 95.9133 39.7497 95.5467 39.3363 95.28C38.923 95 38.4297 94.86 37.8563 94.86C37.283 94.86 36.7897 95 36.3763 95.28C35.9763 95.5467 35.6697 95.9133 35.4563 96.38C35.243 96.8467 35.1363 97.38 35.1363 97.98V98.04ZM45.3877 104C45.2544 104 45.1411 103.96 45.0477 103.88C44.9677 103.787 44.9277 103.673 44.9277 103.54V90.26C44.9277 90.1267 44.9677 90.02 45.0477 89.94C45.1411 89.8467 45.2544 89.8 45.3877 89.8H46.3277C46.4744 89.8 46.5877 89.8467 46.6677 89.94C46.7477 90.02 46.7877 90.1267 46.7877 90.26V103.54C46.7877 103.673 46.7477 103.787 46.6677 103.88C46.5877 103.96 46.4744 104 46.3277 104H45.3877ZM50.251 104C50.1177 104 50.0043 103.96 49.911 103.88C49.831 103.787 49.791 103.673 49.791 103.54V90.26C49.791 90.1267 49.831 90.02 49.911 89.94C50.0043 89.8467 50.1177 89.8 50.251 89.8H51.191C51.3377 89.8 51.451 89.8467 51.531 89.94C51.611 90.02 51.651 90.1267 51.651 90.26V103.54C51.651 103.673 51.611 103.787 51.531 103.88C51.451 103.96 51.3377 104 51.191 104H50.251ZM58.5143 104.2C57.661 104.2 56.9343 104.013 56.3343 103.64C55.7476 103.253 55.301 102.72 54.9943 102.04C54.6876 101.36 54.5343 100.58 54.5343 99.7V94.06C54.5343 93.9267 54.5743 93.82 54.6543 93.74C54.7476 93.6467 54.861 93.6 54.9943 93.6H55.9943C56.1276 93.6 56.2343 93.6467 56.3143 93.74C56.4076 93.82 56.4543 93.9267 56.4543 94.06V99.6C56.4543 101.587 57.321 102.58 59.0543 102.58C59.881 102.58 60.541 102.32 61.0343 101.8C61.541 101.267 61.7943 100.533 61.7943 99.6V94.06C61.7943 93.9267 61.8343 93.82 61.9143 93.74C62.0076 93.6467 62.121 93.6 62.2543 93.6H63.2343C63.381 93.6 63.4943 93.6467 63.5743 93.74C63.6543 93.82 63.6943 93.9267 63.6943 94.06V103.54C63.6943 103.673 63.6543 103.787 63.5743 103.88C63.4943 103.96 63.381 104 63.2343 104H62.3143C62.181 104 62.0676 103.96 61.9743 103.88C61.8943 103.787 61.8543 103.673 61.8543 103.54V102.66C61.4943 103.127 61.0543 103.5 60.5343 103.78C60.0276 104.06 59.3543 104.2 58.5143 104.2ZM67.1255 104C66.9922 104 66.8789 103.96 66.7855 103.88C66.7055 103.787 66.6655 103.673 66.6655 103.54V94.08C66.6655 93.9467 66.7055 93.8333 66.7855 93.74C66.8789 93.6467 66.9922 93.6 67.1255 93.6H68.0455C68.1789 93.6 68.2922 93.6467 68.3855 93.74C68.4789 93.8333 68.5255 93.9467 68.5255 94.08V94.96C68.7922 94.5067 69.1589 94.1667 69.6255 93.94C70.0922 93.7133 70.6522 93.6 71.3055 93.6H72.1055C72.2389 93.6 72.3455 93.6467 72.4255 93.74C72.5055 93.82 72.5455 93.9267 72.5455 94.06V94.88C72.5455 95.0133 72.5055 95.12 72.4255 95.2C72.3455 95.28 72.2389 95.32 72.1055 95.32H70.9055C70.1855 95.32 69.6189 95.5333 69.2055 95.96C68.7922 96.3733 68.5855 96.94 68.5855 97.66V103.54C68.5855 103.673 68.5389 103.787 68.4455 103.88C68.3522 103.96 68.2389 104 68.1055 104H67.1255ZM74.7232 104C74.5899 104 74.4765 103.96 74.3832 103.88C74.3032 103.787 74.2632 103.673 74.2632 103.54V94.06C74.2632 93.9267 74.3032 93.82 74.3832 93.74C74.4765 93.6467 74.5899 93.6 74.7232 93.6H75.6832C75.8165 93.6 75.9232 93.6467 76.0032 93.74C76.0832 93.82 76.1232 93.9267 76.1232 94.06V103.54C76.1232 103.673 76.0832 103.787 76.0032 103.88C75.9232 103.96 75.8165 104 75.6832 104H74.7232ZM74.5632 91.66C74.4299 91.66 74.3165 91.62 74.2232 91.54C74.1432 91.4467 74.1032 91.3333 74.1032 91.2V90.12C74.1032 89.9867 74.1432 89.88 74.2232 89.8C74.3165 89.7067 74.4299 89.66 74.5632 89.66H75.8232C75.9565 89.66 76.0632 89.7067 76.1432 89.8C76.2365 89.88 76.2832 89.9867 76.2832 90.12V91.2C76.2832 91.3333 76.2365 91.4467 76.1432 91.54C76.0632 91.62 75.9565 91.66 75.8232 91.66H74.5632ZM82.987 104.2C82.1336 104.2 81.407 104.013 80.807 103.64C80.2203 103.253 79.7736 102.72 79.467 102.04C79.1603 101.36 79.007 100.58 79.007 99.7V94.06C79.007 93.9267 79.047 93.82 79.127 93.74C79.2203 93.6467 79.3336 93.6 79.467 93.6H80.467C80.6003 93.6 80.707 93.6467 80.787 93.74C80.8803 93.82 80.927 93.9267 80.927 94.06V99.6C80.927 101.587 81.7936 102.58 83.527 102.58C84.3536 102.58 85.0136 102.32 85.507 101.8C86.0136 101.267 86.267 100.533 86.267 99.6V94.06C86.267 93.9267 86.307 93.82 86.387 93.74C86.4803 93.6467 86.5936 93.6 86.727 93.6H87.707C87.8536 93.6 87.967 93.6467 88.047 93.74C88.127 93.82 88.167 93.9267 88.167 94.06V103.54C88.167 103.673 88.127 103.787 88.047 103.88C87.967 103.96 87.8536 104 87.707 104H86.787C86.6536 104 86.5403 103.96 86.447 103.88C86.367 103.787 86.327 103.673 86.327 103.54V102.66C85.967 103.127 85.527 103.5 85.007 103.78C84.5003 104.06 83.827 104.2 82.987 104.2ZM91.5982 104C91.4649 104 91.3515 103.96 91.2582 103.88C91.1782 103.787 91.1382 103.673 91.1382 103.54V94.06C91.1382 93.9267 91.1782 93.82 91.2582 93.74C91.3515 93.6467 91.4649 93.6 91.5982 93.6H92.4982C92.6315 93.6 92.7382 93.6467 92.8182 93.74C92.9115 93.82 92.9582 93.9267 92.9582 94.06V94.76C93.2649 94.3467 93.6515 94.02 94.1182 93.78C94.5849 93.5267 95.1449 93.4 95.7982 93.4C97.3049 93.3867 98.3715 94 98.9982 95.24C99.3049 94.68 99.7515 94.2333 100.338 93.9C100.925 93.5667 101.592 93.4 102.338 93.4C103.032 93.4 103.658 93.56 104.218 93.88C104.792 94.2 105.238 94.6867 105.558 95.34C105.892 95.98 106.058 96.7867 106.058 97.76V103.54C106.058 103.673 106.012 103.787 105.918 103.88C105.838 103.96 105.732 104 105.598 104H104.658C104.525 104 104.412 103.96 104.318 103.88C104.238 103.787 104.198 103.673 104.198 103.54V97.94C104.198 97.1933 104.092 96.6067 103.878 96.18C103.665 95.7533 103.378 95.4533 103.018 95.28C102.658 95.1067 102.265 95.02 101.838 95.02C101.492 95.02 101.138 95.1067 100.778 95.28C100.418 95.4533 100.118 95.7533 99.8782 96.18C99.6515 96.6067 99.5382 97.1933 99.5382 97.94V103.54C99.5382 103.673 99.4915 103.787 99.3982 103.88C99.3182 103.96 99.2115 104 99.0782 104H98.1382C98.0049 104 97.8915 103.96 97.7982 103.88C97.7182 103.787 97.6782 103.673 97.6782 103.54V97.94C97.6782 97.1933 97.5649 96.6067 97.3382 96.18C97.1115 95.7533 96.8182 95.4533 96.4582 95.28C96.0982 95.1067 95.7182 95.02 95.3182 95.02C94.9715 95.02 94.6182 95.1067 94.2582 95.28C93.8982 95.4533 93.5982 95.7533 93.3582 96.18C93.1315 96.6067 93.0182 97.1867 93.0182 97.92V103.54C93.0182 103.673 92.9715 103.787 92.8782 103.88C92.7982 103.96 92.6915 104 92.5582 104H91.5982Z" fill="white"/>
</g>
<defs>
<linearGradient id="paint0_linear_1_20" x1="77" y1="-27.5" x2="22.5" y2="128" gradientUnits="userSpaceOnUse">
<stop stop-color="#FD18D8"/>
<stop offset="1" stop-color="#5530C1"/>
</linearGradient>
<clipPath id="clip0_1_20">
<rect width="128" height="128" fill="white"/>
</clipPath>
</defs>
</svg>
