<svg width="499" height="499" viewBox="0 0 499 499" fill="none" xmlns="http://www.w3.org/2000/svg">
<g clip-path="url(#clip0_169_25)">
<rect width="499" height="499" rx="52" fill="#292929"/>
<g filter="url(#filter0_f_169_25)">
<path d="M422.402 205.531C426.782 258.085 408.738 352.156 313.616 383.688C251.352 404.328 183.301 307.205 236.362 296.975C397.176 265.968 164.367 210.033 244.245 152.978C302.054 111.685 411.366 73.096 422.402 205.531Z" fill="url(#paint0_radial_169_25)"/>
</g>
<path d="M331.857 167.605L167.364 332.098" stroke="white" stroke-opacity="0.45" stroke-width="6"/>
<path d="M167.364 167.605L331.857 332.098" stroke="white" stroke-width="10"/>
<path d="M153.206 174.962L153.206 324.242" stroke="white" stroke-width="10"/>
<path d="M344.47 176.539L344.47 324.242" stroke="white" stroke-width="10"/>
<circle cx="344.47" cy="346.287" r="19.1747" stroke="white" stroke-width="10"/>
<circle cx="153.175" cy="346.287" r="19.1747" stroke="white" stroke-width="10"/>
<circle cx="344.47" cy="154.992" r="19.1747" stroke="white" stroke-width="10"/>
<circle cx="153.175" cy="154.992" r="19.1747" stroke="white" stroke-width="10"/>
</g>
<defs>
<filter id="filter0_f_169_25" x="137.29" y="34" width="365.71" height="432.558" filterUnits="userSpaceOnUse" color-interpolation-filters="sRGB">
<feFlood flood-opacity="0" result="BackgroundImageFix"/>
<feBlend mode="normal" in="SourceGraphic" in2="BackgroundImageFix" result="shape"/>
<feGaussianBlur stdDeviation="40" result="effect1_foregroundBlur_169_25"/>
</filter>
<radialGradient id="paint0_radial_169_25" cx="0" cy="0" r="1" gradientUnits="userSpaceOnUse" gradientTransform="translate(213.53 238.972) rotate(13.6335) scale(332.66 228.246)">
<stop stop-color="#00ADFF"/>
<stop offset="0.888542" stop-color="#00ADFF" stop-opacity="0.403125"/>
<stop offset="1" stop-color="#F9FCFD" stop-opacity="0"/>
</radialGradient>
<clipPath id="clip0_169_25">
<rect width="499" height="499" rx="52" fill="white"/>
</clipPath>
</defs>
</svg>
