<svg xmlns="http://www.w3.org/2000/svg" width="499" height="499" viewBox="0 0 499 499" fill="none">
    <g filter="url(#filter0_f_4_61)">
        <path d="M414.145 207.084C418.312 257.084 401.145 346.584 310.645 376.584C251.407 396.221 186.662 303.817 237.145 294.084C390.145 264.584 168.648 211.367 244.645 157.084C299.645 117.798 403.645 81.0836 414.145 207.084Z" fill="url(#paint0_radial_4_61)"/>
    </g>
    <path d="M328 171L171.5 327.5" stroke="white" stroke-opacity="0.45" stroke-width="6"/>
    <path d="M171.5 171L328 327.5" stroke="white" stroke-width="10"/>
    <path d="M158.03 178L158.03 320.026" stroke="white" stroke-width="10"/>
    <path d="M340 179.5L340 320.026" stroke="white" stroke-width="10"/>
    <circle cx="340" cy="341" r="18" stroke="white" stroke-width="10"/>
    <circle cx="158" cy="341" r="18" stroke="white" stroke-width="10"/>
    <circle cx="340" cy="159" r="18" stroke="white" stroke-width="10"/>
    <circle cx="158" cy="159" r="18" stroke="white" stroke-width="10"/>
    <defs>
        <filter id="filter0_f_4_61" x="139" y="40" width="355.714" height="419.314" filterUnits="userSpaceOnUse" color-interpolation-filters="sRGB">
            <feFlood flood-opacity="0" result="BackgroundImageFix"/>
            <feBlend mode="normal" in="SourceGraphic" in2="BackgroundImageFix" result="shape"/>
            <feGaussianBlur stdDeviation="40" result="effect1_foregroundBlur_4_61"/>
        </filter>
        <radialGradient id="paint0_radial_4_61" cx="0" cy="0" r="1" gradientUnits="userSpaceOnUse" gradientTransform="translate(215.423 238.899) rotate(13.6335) scale(316.495 217.155)">
            <stop stop-color="#00ADFF"/>
            <stop offset="1" stop-color="#0A8ECD" stop-opacity="0"/>
        </radialGradient>
    </defs>
</svg>