<svg width="308" height="86" viewBox="0 0 308 86" fill="none" xmlns="http://www.w3.org/2000/svg">
    <g clip-path="url(#clip0_88_706)">
        <rect width="308" height="86" rx="10" fill="#E2E2E2"/>
        <rect width="308" height="86" fill="url(#paint0_linear_88_706)"/>
        <g clip-path="url(#clip1_88_706)">
            <mask id="mask0_88_706" style="mask-type:alpha" maskUnits="userSpaceOnUse" x="25" y="24" width="45" height="39">
                <path d="M28.2632 54.5508C28.2632 55.0963 28.2632 53.8964 28.2632 55.6861C28.2632 59.133 32.555 60.7206 34.7924 58.0986L59.7073 28.9014C61.9447 26.2794 66.2365 27.8617 66.2365 31.3086V32.5975" stroke="#CCCCCC" stroke-opacity="0.49" stroke-width="5.93333" stroke-linecap="round"/>
                <mask id="mask1_88_706" style="mask-type:alpha" maskUnits="userSpaceOnUse" x="25" y="24" width="45" height="39">
                    <path d="M28.2632 28.1475C28.2632 28.8813 28.2632 42.7681 28.2632 55.6921C28.2632 59.139 32.555 60.7206 34.7924 58.0986L59.7073 28.9014C61.9447 26.2794 66.2365 27.8617 66.2365 31.3086V59.52" stroke="white" stroke-width="5.93333" stroke-linecap="round"/>
                </mask>
                <g mask="url(#mask1_88_706)">
                    <path d="M28.2632 61.8933C28.2632 61.8933 28.2632 45.3486 28.2632 31.3057C28.2632 27.8588 32.555 26.2794 34.7924 28.9014L59.7073 58.0986C61.9447 60.7206 66.2365 59.1383 66.2365 55.6914V25.1067" stroke="white" stroke-width="5.93333" stroke-linecap="round"/>
                </g>
                <path d="M28.2632 31.1883C28.2632 31.1883 28.2632 32.5997 28.2632 31.3106C28.2632 27.8637 32.555 26.2794 34.7924 28.9014L59.7073 58.0986C61.9447 60.7206 66.2365 59.1383 66.2365 55.6914V55.2925" stroke="white" stroke-width="5.93333" stroke-linecap="round"/>
            </mask>
            <g mask="url(#mask0_88_706)">
                <rect x="9.27637" y="5.52661" width="75.9467" height="75.9467" fill="url(#paint1_linear_88_706)"/>
            </g>
        </g>
        <path d="M96.98 25.08C97.8333 25.08 98.5933 25.2533 99.26 25.6C99.94 25.9333 100.473 26.4533 100.86 27.16C101.247 27.8533 101.44 28.7467 101.44 29.84V36H98.32V30.32C98.32 29.4533 98.1267 28.8133 97.74 28.4C97.3667 27.9867 96.8333 27.78 96.14 27.78C95.6467 27.78 95.2 27.8867 94.8 28.1C94.4133 28.3 94.1067 28.6133 93.88 29.04C93.6667 29.4667 93.56 30.0133 93.56 30.68V36H90.44V25.24H93.42V28.22L92.86 27.32C93.2467 26.6 93.8 26.0467 94.52 25.66C95.24 25.2733 96.06 25.08 96.98 25.08ZM109.766 36.16C108.62 36.16 107.6 35.92 106.706 35.44C105.826 34.96 105.126 34.3067 104.606 33.48C104.1 32.64 103.846 31.6867 103.846 30.62C103.846 29.54 104.1 28.5867 104.606 27.76C105.126 26.92 105.826 26.2667 106.706 25.8C107.6 25.32 108.62 25.08 109.766 25.08C110.9 25.08 111.913 25.32 112.806 25.8C113.7 26.2667 114.4 26.9133 114.906 27.74C115.413 28.5667 115.666 29.5267 115.666 30.62C115.666 31.6867 115.413 32.64 114.906 33.48C114.4 34.3067 113.7 34.96 112.806 35.44C111.913 35.92 110.9 36.16 109.766 36.16ZM109.766 33.6C110.286 33.6 110.753 33.48 111.166 33.24C111.58 33 111.906 32.66 112.146 32.22C112.386 31.7667 112.506 31.2333 112.506 30.62C112.506 29.9933 112.386 29.46 112.146 29.02C111.906 28.58 111.58 28.24 111.166 28C110.753 27.76 110.286 27.64 109.766 27.64C109.246 27.64 108.78 27.76 108.366 28C107.953 28.24 107.62 28.58 107.366 29.02C107.126 29.46 107.006 29.9933 107.006 30.62C107.006 31.2333 107.126 31.7667 107.366 32.22C107.62 32.66 107.953 33 108.366 33.24C108.78 33.48 109.246 33.6 109.766 33.6ZM118.052 36V25.24H121.032V28.28L120.612 27.4C120.932 26.64 121.445 26.0667 122.152 25.68C122.858 25.28 123.718 25.08 124.732 25.08V27.96C124.598 27.9467 124.478 27.94 124.372 27.94C124.265 27.9267 124.152 27.92 124.032 27.92C123.178 27.92 122.485 28.1667 121.952 28.66C121.432 29.14 121.172 29.8933 121.172 30.92V36H118.052ZM140.686 25.08C141.54 25.08 142.293 25.2533 142.946 25.6C143.613 25.9333 144.133 26.4533 144.506 27.16C144.893 27.8533 145.086 28.7467 145.086 29.84V36H141.966V30.32C141.966 29.4533 141.786 28.8133 141.426 28.4C141.066 27.9867 140.56 27.78 139.906 27.78C139.453 27.78 139.046 27.8867 138.686 28.1C138.326 28.3 138.046 28.6067 137.846 29.02C137.646 29.4333 137.546 29.96 137.546 30.6V36H134.426V30.32C134.426 29.4533 134.246 28.8133 133.886 28.4C133.54 27.9867 133.04 27.78 132.386 27.78C131.933 27.78 131.526 27.8867 131.166 28.1C130.806 28.3 130.526 28.6067 130.326 29.02C130.126 29.4333 130.026 29.96 130.026 30.6V36H126.906V25.24H129.886V28.18L129.326 27.32C129.7 26.5867 130.226 26.0333 130.906 25.66C131.6 25.2733 132.386 25.08 133.266 25.08C134.253 25.08 135.113 25.3333 135.846 25.84C136.593 26.3333 137.086 27.0933 137.326 28.12L136.226 27.82C136.586 26.98 137.16 26.3133 137.946 25.82C138.746 25.3267 139.66 25.08 140.686 25.08ZM154.783 36V33.9L154.583 33.44V29.68C154.583 29.0133 154.376 28.4933 153.963 28.12C153.563 27.7467 152.943 27.56 152.103 27.56C151.53 27.56 150.963 27.6533 150.403 27.84C149.856 28.0133 149.39 28.2533 149.003 28.56L147.883 26.38C148.47 25.9667 149.176 25.6467 150.003 25.42C150.83 25.1933 151.67 25.08 152.523 25.08C154.163 25.08 155.436 25.4667 156.343 26.24C157.25 27.0133 157.703 28.22 157.703 29.86V36H154.783ZM151.503 36.16C150.663 36.16 149.943 36.02 149.343 35.74C148.743 35.4467 148.283 35.0533 147.963 34.56C147.643 34.0667 147.483 33.5133 147.483 32.9C147.483 32.26 147.636 31.7 147.943 31.22C148.263 30.74 148.763 30.3667 149.443 30.1C150.123 29.82 151.01 29.68 152.103 29.68H154.963V31.5H152.443C151.71 31.5 151.203 31.62 150.923 31.86C150.656 32.1 150.523 32.4 150.523 32.76C150.523 33.16 150.676 33.48 150.983 33.72C151.303 33.9467 151.736 34.06 152.283 34.06C152.803 34.06 153.27 33.94 153.683 33.7C154.096 33.4467 154.396 33.08 154.583 32.6L155.063 34.04C154.836 34.7333 154.423 35.26 153.823 35.62C153.223 35.98 152.45 36.16 151.503 36.16ZM165.227 36.16C163.96 36.16 162.973 35.84 162.267 35.2C161.56 34.5467 161.207 33.58 161.207 32.3V22.86H164.327V32.26C164.327 32.7133 164.447 33.0667 164.687 33.32C164.927 33.56 165.253 33.68 165.667 33.68C166.16 33.68 166.58 33.5467 166.927 33.28L167.767 35.48C167.447 35.7067 167.06 35.88 166.607 36C166.167 36.1067 165.707 36.16 165.227 36.16ZM159.547 27.88V25.48H167.007V27.88H159.547ZM169.818 36V25.24H172.938V36H169.818ZM171.378 23.74C170.805 23.74 170.338 23.5733 169.978 23.24C169.618 22.9067 169.438 22.4933 169.438 22C169.438 21.5067 169.618 21.0933 169.978 20.76C170.338 20.4267 170.805 20.26 171.378 20.26C171.951 20.26 172.418 20.42 172.778 20.74C173.138 21.0467 173.318 21.4467 173.318 21.94C173.318 22.46 173.138 22.8933 172.778 23.24C172.431 23.5733 171.965 23.74 171.378 23.74ZM179.054 36L174.534 25.24H177.754L181.514 34.5H179.914L183.814 25.24H186.814L182.274 36H179.054ZM193.434 36.16C192.207 36.16 191.127 35.92 190.194 35.44C189.274 34.96 188.561 34.3067 188.054 33.48C187.547 32.64 187.294 31.6867 187.294 30.62C187.294 29.54 187.541 28.5867 188.034 27.76C188.541 26.92 189.227 26.2667 190.094 25.8C190.961 25.32 191.941 25.08 193.034 25.08C194.087 25.08 195.034 25.3067 195.874 25.76C196.727 26.2 197.401 26.84 197.894 27.68C198.387 28.5067 198.634 29.5 198.634 30.66C198.634 30.78 198.627 30.92 198.614 31.08C198.601 31.2267 198.587 31.3667 198.574 31.5H189.834V29.68H196.934L195.734 30.22C195.734 29.66 195.621 29.1733 195.394 28.76C195.167 28.3467 194.854 28.0267 194.454 27.8C194.054 27.56 193.587 27.44 193.054 27.44C192.521 27.44 192.047 27.56 191.634 27.8C191.234 28.0267 190.921 28.3533 190.694 28.78C190.467 29.1933 190.354 29.6867 190.354 30.26V30.74C190.354 31.3267 190.481 31.8467 190.734 32.3C191.001 32.74 191.367 33.08 191.834 33.32C192.314 33.5467 192.874 33.66 193.514 33.66C194.087 33.66 194.587 33.5733 195.014 33.4C195.454 33.2267 195.854 32.9667 196.214 32.62L197.874 34.42C197.381 34.98 196.761 35.4133 196.014 35.72C195.267 36.0133 194.407 36.16 193.434 36.16ZM212.175 36.16C211.015 36.16 209.982 35.9267 209.075 35.46C208.168 34.98 207.455 34.32 206.935 33.48C206.428 32.64 206.175 31.6867 206.175 30.62C206.175 29.54 206.428 28.5867 206.935 27.76C207.455 26.92 208.168 26.2667 209.075 25.8C209.982 25.32 211.015 25.08 212.175 25.08C213.308 25.08 214.295 25.32 215.135 25.8C215.975 26.2667 216.595 26.94 216.995 27.82L214.575 29.12C214.295 28.6133 213.942 28.24 213.515 28C213.102 27.76 212.648 27.64 212.155 27.64C211.622 27.64 211.142 27.76 210.715 28C210.288 28.24 209.948 28.58 209.695 29.02C209.455 29.46 209.335 29.9933 209.335 30.62C209.335 31.2467 209.455 31.78 209.695 32.22C209.948 32.66 210.288 33 210.715 33.24C211.142 33.48 211.622 33.6 212.155 33.6C212.648 33.6 213.102 33.4867 213.515 33.26C213.942 33.02 214.295 32.64 214.575 32.12L216.995 33.44C216.595 34.3067 215.975 34.98 215.135 35.46C214.295 35.9267 213.308 36.16 212.175 36.16ZM224.075 36.16C222.928 36.16 221.908 35.92 221.015 35.44C220.135 34.96 219.435 34.3067 218.915 33.48C218.408 32.64 218.155 31.6867 218.155 30.62C218.155 29.54 218.408 28.5867 218.915 27.76C219.435 26.92 220.135 26.2667 221.015 25.8C221.908 25.32 222.928 25.08 224.075 25.08C225.208 25.08 226.222 25.32 227.115 25.8C228.008 26.2667 228.708 26.9133 229.215 27.74C229.722 28.5667 229.975 29.5267 229.975 30.62C229.975 31.6867 229.722 32.64 229.215 33.48C228.708 34.3067 228.008 34.96 227.115 35.44C226.222 35.92 225.208 36.16 224.075 36.16ZM224.075 33.6C224.595 33.6 225.062 33.48 225.475 33.24C225.888 33 226.215 32.66 226.455 32.22C226.695 31.7667 226.815 31.2333 226.815 30.62C226.815 29.9933 226.695 29.46 226.455 29.02C226.215 28.58 225.888 28.24 225.475 28C225.062 27.76 224.595 27.64 224.075 27.64C223.555 27.64 223.088 27.76 222.675 28C222.262 28.24 221.928 28.58 221.675 29.02C221.435 29.46 221.315 29.9933 221.315 30.62C221.315 31.2333 221.435 31.7667 221.675 32.22C221.928 32.66 222.262 33 222.675 33.24C223.088 33.48 223.555 33.6 224.075 33.6ZM238.9 25.08C239.754 25.08 240.514 25.2533 241.18 25.6C241.86 25.9333 242.394 26.4533 242.78 27.16C243.167 27.8533 243.36 28.7467 243.36 29.84V36H240.24V30.32C240.24 29.4533 240.047 28.8133 239.66 28.4C239.287 27.9867 238.754 27.78 238.06 27.78C237.567 27.78 237.12 27.8867 236.72 28.1C236.334 28.3 236.027 28.6133 235.8 29.04C235.587 29.4667 235.48 30.0133 235.48 30.68V36H232.36V25.24H235.34V28.22L234.78 27.32C235.167 26.6 235.72 26.0467 236.44 25.66C237.16 25.2733 237.98 25.08 238.9 25.08ZM250.888 36.16C249.622 36.16 248.635 35.84 247.928 35.2C247.222 34.5467 246.868 33.58 246.868 32.3V22.86H249.988V32.26C249.988 32.7133 250.108 33.0667 250.348 33.32C250.588 33.56 250.915 33.68 251.328 33.68C251.822 33.68 252.242 33.5467 252.588 33.28L253.428 35.48C253.108 35.7067 252.722 35.88 252.268 36C251.828 36.1067 251.368 36.16 250.888 36.16ZM245.208 27.88V25.48H252.668V27.88H245.208ZM255.48 36V25.24H258.46V28.28L258.04 27.4C258.36 26.64 258.873 26.0667 259.58 25.68C260.287 25.28 261.147 25.08 262.16 25.08V27.96C262.027 27.9467 261.907 27.94 261.8 27.94C261.693 27.9267 261.58 27.92 261.46 27.92C260.607 27.92 259.913 28.1667 259.38 28.66C258.86 29.14 258.6 29.8933 258.6 30.92V36H255.48ZM269.357 36.16C268.21 36.16 267.19 35.92 266.297 35.44C265.417 34.96 264.717 34.3067 264.197 33.48C263.69 32.64 263.437 31.6867 263.437 30.62C263.437 29.54 263.69 28.5867 264.197 27.76C264.717 26.92 265.417 26.2667 266.297 25.8C267.19 25.32 268.21 25.08 269.357 25.08C270.49 25.08 271.504 25.32 272.397 25.8C273.29 26.2667 273.99 26.9133 274.497 27.74C275.004 28.5667 275.257 29.5267 275.257 30.62C275.257 31.6867 275.004 32.64 274.497 33.48C273.99 34.3067 273.29 34.96 272.397 35.44C271.504 35.92 270.49 36.16 269.357 36.16ZM269.357 33.6C269.877 33.6 270.344 33.48 270.757 33.24C271.17 33 271.497 32.66 271.737 32.22C271.977 31.7667 272.097 31.2333 272.097 30.62C272.097 29.9933 271.977 29.46 271.737 29.02C271.497 28.58 271.17 28.24 270.757 28C270.344 27.76 269.877 27.64 269.357 27.64C268.837 27.64 268.37 27.76 267.957 28C267.544 28.24 267.21 28.58 266.957 29.02C266.717 29.46 266.597 29.9933 266.597 30.62C266.597 31.2333 266.717 31.7667 266.957 32.22C267.21 32.66 267.544 33 267.957 33.24C268.37 33.48 268.837 33.6 269.357 33.6ZM277.642 36V21.16H280.762V36H277.642Z" fill="#292929"/>
        <path d="M95.64 64.16C94.48 64.16 93.4467 63.9267 92.54 63.46C91.6333 62.98 90.92 62.32 90.4 61.48C89.8933 60.64 89.64 59.6867 89.64 58.62C89.64 57.54 89.8933 56.5867 90.4 55.76C90.92 54.92 91.6333 54.2667 92.54 53.8C93.4467 53.32 94.48 53.08 95.64 53.08C96.7733 53.08 97.76 53.32 98.6 53.8C99.44 54.2667 100.06 54.94 100.46 55.82L98.04 57.12C97.76 56.6133 97.4067 56.24 96.98 56C96.5667 55.76 96.1133 55.64 95.62 55.64C95.0867 55.64 94.6067 55.76 94.18 56C93.7533 56.24 93.4133 56.58 93.16 57.02C92.92 57.46 92.8 57.9933 92.8 58.62C92.8 59.2467 92.92 59.78 93.16 60.22C93.4133 60.66 93.7533 61 94.18 61.24C94.6067 61.48 95.0867 61.6 95.62 61.6C96.1133 61.6 96.5667 61.4867 96.98 61.26C97.4067 61.02 97.76 60.64 98.04 60.12L100.46 61.44C100.06 62.3067 99.44 62.98 98.6 63.46C97.76 63.9267 96.7733 64.16 95.64 64.16ZM107.54 64.16C106.393 64.16 105.373 63.92 104.48 63.44C103.6 62.96 102.9 62.3067 102.38 61.48C101.873 60.64 101.62 59.6867 101.62 58.62C101.62 57.54 101.873 56.5867 102.38 55.76C102.9 54.92 103.6 54.2667 104.48 53.8C105.373 53.32 106.393 53.08 107.54 53.08C108.673 53.08 109.686 53.32 110.58 53.8C111.473 54.2667 112.173 54.9133 112.68 55.74C113.186 56.5667 113.44 57.5267 113.44 58.62C113.44 59.6867 113.186 60.64 112.68 61.48C112.173 62.3067 111.473 62.96 110.58 63.44C109.686 63.92 108.673 64.16 107.54 64.16ZM107.54 61.6C108.06 61.6 108.526 61.48 108.94 61.24C109.353 61 109.68 60.66 109.92 60.22C110.16 59.7667 110.28 59.2333 110.28 58.62C110.28 57.9933 110.16 57.46 109.92 57.02C109.68 56.58 109.353 56.24 108.94 56C108.526 55.76 108.06 55.64 107.54 55.64C107.02 55.64 106.553 55.76 106.14 56C105.726 56.24 105.393 56.58 105.14 57.02C104.9 57.46 104.78 57.9933 104.78 58.62C104.78 59.2333 104.9 59.7667 105.14 60.22C105.393 60.66 105.726 61 106.14 61.24C106.553 61.48 107.02 61.6 107.54 61.6ZM115.825 64V53.24H118.805V56.28L118.385 55.4C118.705 54.64 119.218 54.0667 119.925 53.68C120.632 53.28 121.492 53.08 122.505 53.08V55.96C122.372 55.9467 122.252 55.94 122.145 55.94C122.038 55.9267 121.925 55.92 121.805 55.92C120.952 55.92 120.258 56.1667 119.725 56.66C119.205 57.14 118.945 57.8933 118.945 58.92V64H115.825ZM129.922 64.16C128.696 64.16 127.616 63.92 126.682 63.44C125.762 62.96 125.049 62.3067 124.542 61.48C124.036 60.64 123.782 59.6867 123.782 58.62C123.782 57.54 124.029 56.5867 124.522 55.76C125.029 54.92 125.716 54.2667 126.582 53.8C127.449 53.32 128.429 53.08 129.522 53.08C130.576 53.08 131.522 53.3067 132.362 53.76C133.216 54.2 133.889 54.84 134.382 55.68C134.876 56.5067 135.122 57.5 135.122 58.66C135.122 58.78 135.116 58.92 135.102 59.08C135.089 59.2267 135.076 59.3667 135.062 59.5H126.322V57.68H133.422L132.222 58.22C132.222 57.66 132.109 57.1733 131.882 56.76C131.656 56.3467 131.342 56.0267 130.942 55.8C130.542 55.56 130.076 55.44 129.542 55.44C129.009 55.44 128.536 55.56 128.122 55.8C127.722 56.0267 127.409 56.3533 127.182 56.78C126.956 57.1933 126.842 57.6867 126.842 58.26V58.74C126.842 59.3267 126.969 59.8467 127.222 60.3C127.489 60.74 127.856 61.08 128.322 61.32C128.802 61.5467 129.362 61.66 130.002 61.66C130.576 61.66 131.076 61.5733 131.502 61.4C131.942 61.2267 132.342 60.9667 132.702 60.62L134.362 62.42C133.869 62.98 133.249 63.4133 132.502 63.72C131.756 64.0133 130.896 64.16 129.922 64.16Z" fill="url(#paint2_linear_88_706)"/>
    </g>
    <defs>
        <linearGradient id="paint0_linear_88_706" x1="26.6292" y1="-14.6553" x2="175.389" y2="204.426" gradientUnits="userSpaceOnUse">
            <stop offset="0.0669728" stop-color="white"/>
            <stop offset="1" stop-color="#F4F4F4" stop-opacity="0"/>
        </linearGradient>
        <linearGradient id="paint1_linear_88_706" x1="-34.2327" y1="81.4733" x2="116.957" y2="31.7309" gradientUnits="userSpaceOnUse">
            <stop stop-color="#0B83D9"/>
            <stop offset="0.885417" stop-color="#0BD9D9"/>
        </linearGradient>
        <linearGradient id="paint2_linear_88_706" x1="62.0742" y1="71" x2="141.533" y2="27.1183" gradientUnits="userSpaceOnUse">
            <stop stop-color="#0B83D9"/>
            <stop offset="0.885417" stop-color="#0BD9D9"/>
        </linearGradient>
        <clipPath id="clip0_88_706">
            <rect width="308" height="86" rx="10" fill="white"/>
        </clipPath>
        <clipPath id="clip1_88_706">
            <rect width="44.5" height="44.5" fill="white" transform="translate(25 21.25)"/>
        </clipPath>
    </defs>
</svg>
