<svg width="128" height="128" viewBox="0 0 128 128" fill="none" xmlns="http://www.w3.org/2000/svg">
    <g clip-path="url(#clip0_1_2)">
        <rect width="128" height="128" fill="white"/>
        <rect width="128" height="128" fill="url(#paint0_linear_1_2)"/>
        <path d="M29.961 81C29.4917 81 29.1077 80.8507 28.809 80.552C28.5103 80.2533 28.361 79.8693 28.361 79.4V37.8C28.361 37.3307 28.5103 36.9467 28.809 36.648C29.1077 36.3493 29.4917 36.2 29.961 36.2H47.433C50.889 36.2 53.8757 36.7333 56.393 37.8C58.953 38.8667 60.937 40.488 62.345 42.664C63.7957 44.7973 64.521 47.464 64.521 50.664C64.521 53.9067 63.7957 56.5947 62.345 58.728C60.937 60.8187 58.953 62.376 56.393 63.4C53.8757 64.424 50.889 64.936 47.433 64.936H38.857V79.4C38.857 79.8693 38.7077 80.2533 38.409 80.552C38.1103 80.8507 37.7263 81 37.257 81H29.961ZM38.665 57H47.113C49.289 57 50.9743 56.4667 52.169 55.4C53.4063 54.3333 54.025 52.7333 54.025 50.6C54.025 48.7227 53.4703 47.1867 52.361 45.992C51.2943 44.7973 49.545 44.2 47.113 44.2H38.665V57ZM85.2015 81.64C81.6602 81.64 78.6948 81.064 76.3055 79.912C73.9162 78.7173 72.0815 77.032 70.8015 74.856C69.5642 72.68 68.8815 70.1413 68.7535 67.24C68.7108 66.3867 68.6895 65.4267 68.6895 64.36C68.6895 63.2507 68.7108 62.2907 68.7535 61.48C68.8815 58.536 69.6068 55.9973 70.9295 53.864C72.2522 51.688 74.1082 50.024 76.4975 48.872C78.8868 47.6773 81.7882 47.08 85.2015 47.08C88.5722 47.08 91.4522 47.6773 93.8415 48.872C96.2308 50.024 98.0868 51.688 99.4095 53.864C100.732 55.9973 101.458 58.536 101.586 61.48C101.671 62.2907 101.714 63.2507 101.714 64.36C101.714 65.4267 101.671 66.3867 101.586 67.24C101.458 70.1413 100.754 72.68 99.4735 74.856C98.2362 77.032 96.4228 78.7173 94.0335 79.912C91.6442 81.064 88.7002 81.64 85.2015 81.64ZM85.2015 74.6C87.2922 74.6 88.8708 73.96 89.9375 72.68C91.0042 71.3573 91.5802 69.4373 91.6655 66.92C91.7082 66.28 91.7295 65.4267 91.7295 64.36C91.7295 63.2933 91.7082 62.44 91.6655 61.8C91.5802 59.3253 91.0042 57.4267 89.9375 56.104C88.8708 54.7813 87.2922 54.12 85.2015 54.12C83.1108 54.12 81.5108 54.7813 80.4015 56.104C79.3348 57.4267 78.7588 59.3253 78.6735 61.8C78.6308 62.44 78.6095 63.2933 78.6095 64.36C78.6095 65.4267 78.6308 66.28 78.6735 66.92C78.7588 69.4373 79.3348 71.3573 80.4015 72.68C81.5108 73.96 83.1108 74.6 85.2015 74.6Z"
              fill="white"/>
        <path d="M15.5378 27.16C14.9938 27.16 14.4764 27.0907 13.9858 26.952C13.5058 26.8027 13.0844 26.5893 12.7218 26.312C12.3591 26.024 12.0711 25.6773 11.8578 25.272C11.6551 24.856 11.5538 24.3813 11.5538 23.848C11.5538 23.1653 11.7191 22.5893 12.0498 22.12C12.3804 21.64 12.8178 21.272 13.3618 21.016C12.9351 20.7707 12.5938 20.4453 12.3378 20.04C12.0818 19.6347 11.9538 19.1493 11.9538 18.584C11.9538 17.9333 12.1138 17.3947 12.4338 16.968C12.7538 16.5307 13.1858 16.2 13.7298 15.976C14.2738 15.752 14.8764 15.64 15.5378 15.64C16.1991 15.64 16.8018 15.752 17.3458 15.976C17.8898 16.2 18.3218 16.5307 18.6418 16.968C18.9618 17.3947 19.1218 17.9333 19.1218 18.584C19.1218 19.1493 18.9938 19.6347 18.7378 20.04C18.4818 20.4453 18.1404 20.7707 17.7138 21.016C18.2578 21.272 18.6951 21.64 19.0258 22.12C19.3564 22.5893 19.5218 23.1653 19.5218 23.848C19.5218 24.5627 19.3404 25.1653 18.9778 25.656C18.6258 26.1467 18.1458 26.52 17.5378 26.776C16.9404 27.032 16.2738 27.16 15.5378 27.16ZM15.5378 26.2C16.0924 26.2 16.5938 26.104 17.0418 25.912C17.4898 25.72 17.8471 25.448 18.1138 25.096C18.3804 24.744 18.5138 24.328 18.5138 23.848C18.5138 23.3573 18.3804 22.9413 18.1138 22.6C17.8471 22.248 17.4898 21.9813 17.0418 21.8C16.5938 21.608 16.0924 21.512 15.5378 21.512C14.9938 21.512 14.4924 21.608 14.0338 21.8C13.5858 21.9813 13.2284 22.248 12.9618 22.6C12.6951 22.9413 12.5618 23.3573 12.5618 23.848C12.5618 24.328 12.6951 24.744 12.9618 25.096C13.2284 25.448 13.5858 25.72 14.0338 25.912C14.4924 26.104 14.9938 26.2 15.5378 26.2ZM15.5378 20.552C15.9964 20.5413 16.4178 20.456 16.8018 20.296C17.1964 20.136 17.5111 19.912 17.7458 19.624C17.9911 19.336 18.1138 18.9893 18.1138 18.584C18.1138 18.168 17.9964 17.816 17.7618 17.528C17.5378 17.2293 17.2284 17 16.8338 16.84C16.4498 16.68 16.0178 16.6 15.5378 16.6C15.0684 16.6 14.6364 16.68 14.2418 16.84C13.8471 17 13.5324 17.2293 13.2978 17.528C13.0738 17.816 12.9618 18.168 12.9618 18.584C12.9618 19 13.0738 19.3573 13.2978 19.656C13.5324 19.944 13.8471 20.168 14.2418 20.328C14.6364 20.4773 15.0684 20.552 15.5378 20.552ZM26.9804 27C26.8737 27 26.7884 26.968 26.7244 26.904C26.6604 26.84 26.6284 26.7547 26.6284 26.648V24.12H21.3484C21.2417 24.12 21.1564 24.088 21.0924 24.024C21.0284 23.96 20.9964 23.8747 20.9964 23.768V23.512C20.9964 23.4907 21.007 23.432 21.0284 23.336C21.0497 23.24 21.0977 23.1387 21.1724 23.032L26.0364 16.072C26.1644 15.8907 26.3617 15.8 26.6284 15.8H27.2844C27.391 15.8 27.4764 15.832 27.5404 15.896C27.6044 15.96 27.6364 16.0453 27.6364 16.152V23.16H29.0924C29.199 23.16 29.2844 23.192 29.3484 23.256C29.4124 23.32 29.4444 23.4053 29.4444 23.512V23.768C29.4444 23.8747 29.4124 23.96 29.3484 24.024C29.2844 24.088 29.199 24.12 29.0924 24.12H27.6364V26.648C27.6364 26.7547 27.6044 26.84 27.5404 26.904C27.4764 26.968 27.391 27 27.2844 27H26.9804ZM22.2604 23.16H26.6284V16.936L22.2604 23.16Z"
              fill="white"/>
        <path d="M23.5477 104C23.401 104 23.2877 103.96 23.2077 103.88C23.1277 103.787 23.0877 103.673 23.0877 103.54V90.48C23.0877 90.3333 23.1277 90.22 23.2077 90.14C23.2877 90.0467 23.401 90 23.5477 90H28.6277C29.6143 90 30.4677 90.16 31.1877 90.48C31.921 90.8 32.4877 91.28 32.8877 91.92C33.2877 92.5467 33.4877 93.3333 33.4877 94.28C33.4877 95.2267 33.2877 96.0133 32.8877 96.64C32.4877 97.2667 31.921 97.74 31.1877 98.06C30.4677 98.38 29.6143 98.54 28.6277 98.54H25.0877V103.54C25.0877 103.673 25.041 103.787 24.9477 103.88C24.8677 103.96 24.7543 104 24.6077 104H23.5477ZM25.0677 96.86H28.5277C29.5143 96.86 30.2543 96.64 30.7477 96.2C31.241 95.76 31.4877 95.12 31.4877 94.28C31.4877 93.4533 31.2477 92.8133 30.7677 92.36C30.2877 91.9067 29.541 91.68 28.5277 91.68H25.0677V96.86ZM39.783 104.2C38.7696 104.2 37.923 104.007 37.243 103.62C36.563 103.233 36.043 102.7 35.683 102.02C35.323 101.327 35.123 100.54 35.083 99.66C35.0696 99.4333 35.063 99.1467 35.063 98.8C35.063 98.44 35.0696 98.1533 35.083 97.94C35.123 97.0467 35.323 96.26 35.683 95.58C36.0563 94.9 36.583 94.3667 37.263 93.98C37.943 93.5933 38.783 93.4 39.783 93.4C40.783 93.4 41.623 93.5933 42.303 93.98C42.983 94.3667 43.503 94.9 43.863 95.58C44.2363 96.26 44.443 97.0467 44.483 97.94C44.4963 98.1533 44.503 98.44 44.503 98.8C44.503 99.1467 44.4963 99.4333 44.483 99.66C44.443 100.54 44.243 101.327 43.883 102.02C43.523 102.7 43.003 103.233 42.323 103.62C41.643 104.007 40.7963 104.2 39.783 104.2ZM39.783 102.66C40.6096 102.66 41.2696 102.4 41.763 101.88C42.2563 101.347 42.523 100.573 42.563 99.56C42.5763 99.36 42.583 99.1067 42.583 98.8C42.583 98.4933 42.5763 98.24 42.563 98.04C42.523 97.0267 42.2563 96.26 41.763 95.74C41.2696 95.2067 40.6096 94.94 39.783 94.94C38.9563 94.94 38.2896 95.2067 37.783 95.74C37.2896 96.26 37.0296 97.0267 37.003 98.04C36.9896 98.24 36.983 98.4933 36.983 98.8C36.983 99.1067 36.9896 99.36 37.003 99.56C37.0296 100.573 37.2896 101.347 37.783 101.88C38.2896 102.4 38.9563 102.66 39.783 102.66ZM47.4873 104C47.354 104 47.2407 103.96 47.1473 103.88C47.0673 103.787 47.0273 103.673 47.0273 103.54V90.26C47.0273 90.1267 47.0673 90.02 47.1473 89.94C47.2407 89.8467 47.354 89.8 47.4873 89.8H48.4273C48.574 89.8 48.6873 89.8467 48.7673 89.94C48.8473 90.02 48.8873 90.1267 48.8873 90.26V103.54C48.8873 103.673 48.8473 103.787 48.7673 103.88C48.6873 103.96 48.574 104 48.4273 104H47.4873ZM56.1306 104.2C55.1173 104.2 54.2706 104.007 53.5906 103.62C52.9106 103.233 52.3906 102.7 52.0306 102.02C51.6706 101.327 51.4706 100.54 51.4306 99.66C51.4173 99.4333 51.4106 99.1467 51.4106 98.8C51.4106 98.44 51.4173 98.1533 51.4306 97.94C51.4706 97.0467 51.6706 96.26 52.0306 95.58C52.404 94.9 52.9306 94.3667 53.6106 93.98C54.2906 93.5933 55.1306 93.4 56.1306 93.4C57.1306 93.4 57.9706 93.5933 58.6506 93.98C59.3306 94.3667 59.8506 94.9 60.2106 95.58C60.584 96.26 60.7906 97.0467 60.8306 97.94C60.844 98.1533 60.8506 98.44 60.8506 98.8C60.8506 99.1467 60.844 99.4333 60.8306 99.66C60.7906 100.54 60.5906 101.327 60.2306 102.02C59.8706 102.7 59.3506 103.233 58.6706 103.62C57.9906 104.007 57.144 104.2 56.1306 104.2ZM56.1306 102.66C56.9573 102.66 57.6173 102.4 58.1106 101.88C58.604 101.347 58.8706 100.573 58.9106 99.56C58.924 99.36 58.9306 99.1067 58.9306 98.8C58.9306 98.4933 58.924 98.24 58.9106 98.04C58.8706 97.0267 58.604 96.26 58.1106 95.74C57.6173 95.2067 56.9573 94.94 56.1306 94.94C55.304 94.94 54.6373 95.2067 54.1306 95.74C53.6373 96.26 53.3773 97.0267 53.3506 98.04C53.3373 98.24 53.3306 98.4933 53.3306 98.8C53.3306 99.1067 53.3373 99.36 53.3506 99.56C53.3773 100.573 53.6373 101.347 54.1306 101.88C54.6373 102.4 55.304 102.66 56.1306 102.66ZM63.815 104C63.6817 104 63.5683 103.96 63.475 103.88C63.395 103.787 63.355 103.673 63.355 103.54V94.06C63.355 93.9267 63.395 93.82 63.475 93.74C63.5683 93.6467 63.6817 93.6 63.815 93.6H64.755C64.8883 93.6 64.995 93.6467 65.075 93.74C65.1683 93.82 65.215 93.9267 65.215 94.06V94.94C65.5617 94.4867 65.995 94.12 66.515 93.84C67.0483 93.5467 67.7283 93.4 68.555 93.4C69.4217 93.4 70.155 93.5933 70.755 93.98C71.3683 94.3533 71.8283 94.88 72.135 95.56C72.4417 96.2267 72.595 97.0067 72.595 97.9V103.54C72.595 103.673 72.555 103.787 72.475 103.88C72.395 103.96 72.2883 104 72.155 104H71.155C71.0217 104 70.9083 103.96 70.815 103.88C70.735 103.787 70.695 103.673 70.695 103.54V98C70.695 97.0667 70.4683 96.34 70.015 95.82C69.5617 95.2867 68.895 95.02 68.015 95.02C67.1883 95.02 66.5217 95.2867 66.015 95.82C65.5217 96.34 65.275 97.0667 65.275 98V103.54C65.275 103.673 65.2283 103.787 65.135 103.88C65.055 103.96 64.9483 104 64.815 104H63.815ZM75.9439 104C75.8106 104 75.6972 103.96 75.6039 103.88C75.5239 103.787 75.4839 103.673 75.4839 103.54V94.06C75.4839 93.9267 75.5239 93.82 75.6039 93.74C75.6972 93.6467 75.8106 93.6 75.9439 93.6H76.9039C77.0372 93.6 77.1439 93.6467 77.2239 93.74C77.3039 93.82 77.3439 93.9267 77.3439 94.06V103.54C77.3439 103.673 77.3039 103.787 77.2239 103.88C77.1439 103.96 77.0372 104 76.9039 104H75.9439ZM75.7839 91.66C75.6506 91.66 75.5372 91.62 75.4439 91.54C75.3639 91.4467 75.3239 91.3333 75.3239 91.2V90.12C75.3239 89.9867 75.3639 89.88 75.4439 89.8C75.5372 89.7067 75.6506 89.66 75.7839 89.66H77.0439C77.1772 89.66 77.2839 89.7067 77.3639 89.8C77.4572 89.88 77.5039 89.9867 77.5039 90.12V91.2C77.5039 91.3333 77.4572 91.4467 77.3639 91.54C77.2839 91.62 77.1772 91.66 77.0439 91.66H75.7839ZM84.2077 104.2C83.3543 104.2 82.6277 104.013 82.0277 103.64C81.441 103.253 80.9943 102.72 80.6877 102.04C80.381 101.36 80.2277 100.58 80.2277 99.7V94.06C80.2277 93.9267 80.2677 93.82 80.3477 93.74C80.441 93.6467 80.5543 93.6 80.6877 93.6H81.6877C81.821 93.6 81.9277 93.6467 82.0077 93.74C82.101 93.82 82.1477 93.9267 82.1477 94.06V99.6C82.1477 101.587 83.0143 102.58 84.7477 102.58C85.5743 102.58 86.2343 102.32 86.7277 101.8C87.2343 101.267 87.4877 100.533 87.4877 99.6V94.06C87.4877 93.9267 87.5277 93.82 87.6077 93.74C87.701 93.6467 87.8143 93.6 87.9477 93.6H88.9277C89.0743 93.6 89.1877 93.6467 89.2677 93.74C89.3477 93.82 89.3877 93.9267 89.3877 94.06V103.54C89.3877 103.673 89.3477 103.787 89.2677 103.88C89.1877 103.96 89.0743 104 88.9277 104H88.0077C87.8743 104 87.761 103.96 87.6677 103.88C87.5877 103.787 87.5477 103.673 87.5477 103.54V102.66C87.1877 103.127 86.7477 103.5 86.2277 103.78C85.721 104.06 85.0477 104.2 84.2077 104.2ZM92.8189 104C92.6856 104 92.5722 103.96 92.4789 103.88C92.3989 103.787 92.3589 103.673 92.3589 103.54V94.06C92.3589 93.9267 92.3989 93.82 92.4789 93.74C92.5722 93.6467 92.6856 93.6 92.8189 93.6H93.7189C93.8522 93.6 93.9589 93.6467 94.0389 93.74C94.1322 93.82 94.1789 93.9267 94.1789 94.06V94.76C94.4856 94.3467 94.8722 94.02 95.3389 93.78C95.8056 93.5267 96.3656 93.4 97.0189 93.4C98.5256 93.3867 99.5922 94 100.219 95.24C100.526 94.68 100.972 94.2333 101.559 93.9C102.146 93.5667 102.812 93.4 103.559 93.4C104.252 93.4 104.879 93.56 105.439 93.88C106.012 94.2 106.459 94.6867 106.779 95.34C107.112 95.98 107.279 96.7867 107.279 97.76V103.54C107.279 103.673 107.232 103.787 107.139 103.88C107.059 103.96 106.952 104 106.819 104H105.879C105.746 104 105.632 103.96 105.539 103.88C105.459 103.787 105.419 103.673 105.419 103.54V97.94C105.419 97.1933 105.312 96.6067 105.099 96.18C104.886 95.7533 104.599 95.4533 104.239 95.28C103.879 95.1067 103.486 95.02 103.059 95.02C102.712 95.02 102.359 95.1067 101.999 95.28C101.639 95.4533 101.339 95.7533 101.099 96.18C100.872 96.6067 100.759 97.1933 100.759 97.94V103.54C100.759 103.673 100.712 103.787 100.619 103.88C100.539 103.96 100.432 104 100.299 104H99.3589C99.2256 104 99.1122 103.96 99.0189 103.88C98.9389 103.787 98.8989 103.673 98.8989 103.54V97.94C98.8989 97.1933 98.7856 96.6067 98.5589 96.18C98.3322 95.7533 98.0389 95.4533 97.6789 95.28C97.3189 95.1067 96.9389 95.02 96.5389 95.02C96.1922 95.02 95.8389 95.1067 95.4789 95.28C95.1189 95.4533 94.8189 95.7533 94.5789 96.18C94.3522 96.6067 94.2389 97.1867 94.2389 97.92V103.54C94.2389 103.673 94.1922 103.787 94.0989 103.88C94.0189 103.96 93.9122 104 93.7789 104H92.8189Z"
              fill="white"/>
    </g>
    <defs>
        <linearGradient id="paint0_linear_1_2" x1="0" y1="0" x2="128" y2="128" gradientUnits="userSpaceOnUse">
            <stop stop-color="#CF1EC8"/>
            <stop offset="0.557292" stop-color="#FF5F5F"/>
            <stop offset="1" stop-color="#C7B82F"/>
        </linearGradient>
        <clipPath id="clip0_1_2">
            <rect width="128" height="128" fill="white"/>
        </clipPath>
    </defs>
</svg>
