<svg width="128" height="128" viewBox="0 0 128 128" fill="none" xmlns="http://www.w3.org/2000/svg">
<g clip-path="url(#clip0_1_15)">
<rect width="128" height="128" fill="white"/>
<rect width="128" height="128" fill="url(#paint0_linear_1_15)"/>
<path d="M35.5235 81C35.0542 81 34.6702 80.8507 34.3715 80.552C34.0728 80.2533 33.9235 79.8693 33.9235 79.4V37.8C33.9235 37.3307 34.0728 36.9467 34.3715 36.648C34.6702 36.3493 35.0542 36.2 35.5235 36.2H42.6275C43.0968 36.2 43.4808 36.3493 43.7795 36.648C44.0782 36.9467 44.2275 37.3307 44.2275 37.8V72.424H64.0675C64.5368 72.424 64.9208 72.5733 65.2195 72.872C65.5182 73.1707 65.6675 73.5547 65.6675 74.024V79.4C65.6675 79.8693 65.5182 80.2533 65.2195 80.552C64.9208 80.8507 64.5368 81 64.0675 81H35.5235ZM77.2455 81C76.6055 81 76.1148 80.8507 75.7735 80.552C75.4748 80.2107 75.2188 79.8267 75.0055 79.4L62.9735 49.704C62.8882 49.5333 62.8455 49.3413 62.8455 49.128C62.8455 48.744 62.9735 48.424 63.2295 48.168C63.5282 47.8693 63.8695 47.72 64.2535 47.72H70.4615C71.0162 47.72 71.4215 47.8693 71.6775 48.168C71.9762 48.4667 72.1682 48.744 72.2535 49L80.1255 70.12L87.9975 49C88.1255 48.744 88.3175 48.4667 88.5735 48.168C88.8722 47.8693 89.2775 47.72 89.7895 47.72H95.9975C96.3815 47.72 96.7015 47.8693 96.9575 48.168C97.2562 48.424 97.4055 48.744 97.4055 49.128C97.4055 49.3413 97.3842 49.5333 97.3415 49.704L85.2455 79.4C85.0748 79.8267 84.8188 80.2107 84.4775 80.552C84.1362 80.8507 83.6455 81 83.0055 81H77.2455Z" fill="white"/>
<path d="M12.3535 27C12.2468 27 12.1615 26.968 12.0975 26.904C12.0335 26.84 12.0015 26.7547 12.0015 26.648V17.112L9.1375 19.32C9.05217 19.384 8.9615 19.4107 8.8655 19.4C8.78017 19.3893 8.7055 19.3413 8.6415 19.256L8.4655 19.032C8.4015 18.9467 8.37483 18.8613 8.3855 18.776C8.39617 18.68 8.44417 18.6 8.5295 18.536L11.9375 15.912C12.0122 15.8587 12.0815 15.8267 12.1455 15.816C12.2095 15.8053 12.2788 15.8 12.3535 15.8H12.6575C12.7642 15.8 12.8495 15.832 12.9135 15.896C12.9775 15.96 13.0095 16.0453 13.0095 16.152V26.648C13.0095 26.7547 12.9775 26.84 12.9135 26.904C12.8495 26.968 12.7642 27 12.6575 27H12.3535ZM18.7285 27C18.6218 27 18.5365 26.968 18.4725 26.904C18.4085 26.84 18.3765 26.7547 18.3765 26.648V17.112L15.5125 19.32C15.4272 19.384 15.3365 19.4107 15.2405 19.4C15.1552 19.3893 15.0805 19.3413 15.0165 19.256L14.8405 19.032C14.7765 18.9467 14.7498 18.8613 14.7605 18.776C14.7712 18.68 14.8192 18.6 14.9045 18.536L18.3125 15.912C18.3872 15.8587 18.4565 15.8267 18.5205 15.816C18.5845 15.8053 18.6538 15.8 18.7285 15.8H19.0325C19.1392 15.8 19.2245 15.832 19.2885 15.896C19.3525 15.96 19.3845 16.0453 19.3845 16.152V26.648C19.3845 26.7547 19.3525 26.84 19.2885 26.904C19.2245 26.968 19.1392 27 19.0325 27H18.7285ZM25.4555 27.16C24.6022 27.16 23.8875 26.9787 23.3115 26.616C22.7355 26.2533 22.2982 25.784 21.9995 25.208C21.7115 24.632 21.5675 24.024 21.5675 23.384C21.5675 23.0747 21.5995 22.7813 21.6635 22.504C21.7382 22.216 21.8288 21.9493 21.9355 21.704C22.0422 21.4587 22.1488 21.24 22.2555 21.048C22.3728 20.8453 22.4795 20.68 22.5755 20.552L25.7275 16.12C25.7808 16.0667 25.8395 16.0027 25.9035 15.928C25.9782 15.8427 26.0848 15.8 26.2235 15.8H26.5275C26.6235 15.8 26.6982 15.8373 26.7515 15.912C26.8155 15.976 26.8475 16.056 26.8475 16.152C26.8475 16.1947 26.8368 16.2373 26.8155 16.28C26.8048 16.312 26.7888 16.3387 26.7675 16.36L24.3675 19.752C24.5168 19.7093 24.6928 19.6773 24.8955 19.656C25.0982 19.6347 25.2848 19.624 25.4555 19.624C26.0955 19.624 26.6555 19.7307 27.1355 19.944C27.6262 20.1467 28.0315 20.424 28.3515 20.776C28.6822 21.128 28.9275 21.5333 29.0875 21.992C29.2582 22.44 29.3435 22.904 29.3435 23.384C29.3435 24.024 29.1942 24.632 28.8955 25.208C28.6075 25.784 28.1755 26.2533 27.5995 26.616C27.0235 26.9787 26.3088 27.16 25.4555 27.16ZM25.4555 26.2C25.9568 26.2 26.4262 26.0933 26.8635 25.88C27.3008 25.6667 27.6528 25.352 27.9195 24.936C28.1968 24.5093 28.3355 23.992 28.3355 23.384C28.3355 22.776 28.1968 22.264 27.9195 21.848C27.6528 21.432 27.3008 21.1173 26.8635 20.904C26.4262 20.6907 25.9568 20.584 25.4555 20.584C24.9542 20.584 24.4848 20.6907 24.0475 20.904C23.6102 21.1173 23.2528 21.432 22.9755 21.848C22.7088 22.264 22.5755 22.776 22.5755 23.384C22.5755 23.992 22.7088 24.5093 22.9755 24.936C23.2528 25.352 23.6102 25.6667 24.0475 25.88C24.4848 26.0933 24.9542 26.2 25.4555 26.2Z" fill="white"/>
<path d="M8.64531 104C8.49865 104 8.38531 103.96 8.30531 103.88C8.22531 103.787 8.18531 103.673 8.18531 103.54V90.46C8.18531 90.3267 8.22531 90.22 8.30531 90.14C8.38531 90.0467 8.49865 90 8.64531 90H9.70531C9.83865 90 9.94531 90.0467 10.0253 90.14C10.1053 90.22 10.1453 90.3267 10.1453 90.46V102.26H16.8053C16.952 102.26 17.0653 102.307 17.1453 102.4C17.2253 102.48 17.2653 102.593 17.2653 102.74V103.54C17.2653 103.673 17.2253 103.787 17.1453 103.88C17.0653 103.96 16.952 104 16.8053 104H8.64531ZM19.6548 104C19.5215 104 19.4082 103.96 19.3148 103.88C19.2348 103.787 19.1948 103.673 19.1948 103.54V94.06C19.1948 93.9267 19.2348 93.82 19.3148 93.74C19.4082 93.6467 19.5215 93.6 19.6548 93.6H20.6148C20.7482 93.6 20.8548 93.6467 20.9348 93.74C21.0148 93.82 21.0548 93.9267 21.0548 94.06V103.54C21.0548 103.673 21.0148 103.787 20.9348 103.88C20.8548 103.96 20.7482 104 20.6148 104H19.6548ZM19.4948 91.66C19.3615 91.66 19.2482 91.62 19.1548 91.54C19.0748 91.4467 19.0348 91.3333 19.0348 91.2V90.12C19.0348 89.9867 19.0748 89.88 19.1548 89.8C19.2482 89.7067 19.3615 89.66 19.4948 89.66H20.7548C20.8882 89.66 20.9948 89.7067 21.0748 89.8C21.1682 89.88 21.2148 89.9867 21.2148 90.12V91.2C21.2148 91.3333 21.1682 91.4467 21.0748 91.54C20.9948 91.62 20.8882 91.66 20.7548 91.66H19.4948ZM27.6586 104C27.4586 104 27.2986 103.953 27.1786 103.86C27.0719 103.767 26.9853 103.647 26.9186 103.5L23.2186 94.22C23.1919 94.1533 23.1786 94.0867 23.1786 94.02C23.1786 93.9 23.2186 93.8 23.2986 93.72C23.3786 93.64 23.4786 93.6 23.5986 93.6H24.5586C24.7053 93.6 24.8186 93.64 24.8986 93.72C24.9786 93.8 25.0253 93.8733 25.0386 93.94L28.0986 101.82L31.1386 93.94C31.1653 93.8733 31.2119 93.8 31.2786 93.72C31.3586 93.64 31.4719 93.6 31.6186 93.6H32.5986C32.7053 93.6 32.7986 93.64 32.8786 93.72C32.9719 93.8 33.0186 93.9 33.0186 94.02C33.0186 94.0867 33.0053 94.1533 32.9786 94.22L29.2586 103.5C29.2053 103.647 29.1186 103.767 28.9986 103.86C28.8919 103.953 28.7319 104 28.5186 104H27.6586ZM38.8817 104.2C37.5084 104.2 36.4151 103.78 35.6017 102.94C34.7884 102.087 34.3417 100.927 34.2617 99.46C34.2484 99.2867 34.2417 99.0667 34.2417 98.8C34.2417 98.52 34.2484 98.2933 34.2617 98.12C34.3151 97.1733 34.5351 96.3467 34.9217 95.64C35.3084 94.92 35.8351 94.3667 36.5017 93.98C37.1817 93.5933 37.9751 93.4 38.8817 93.4C39.8951 93.4 40.7417 93.6133 41.4217 94.04C42.1151 94.4667 42.6417 95.0733 43.0017 95.86C43.3617 96.6467 43.5417 97.5667 43.5417 98.62V98.96C43.5417 99.1067 43.4951 99.22 43.4017 99.3C43.3217 99.38 43.2151 99.42 43.0817 99.42H36.1617C36.1617 99.4333 36.1617 99.46 36.1617 99.5C36.1617 99.54 36.1617 99.5733 36.1617 99.6C36.1884 100.147 36.3084 100.66 36.5217 101.14C36.7351 101.607 37.0417 101.987 37.4417 102.28C37.8417 102.573 38.3217 102.72 38.8817 102.72C39.3617 102.72 39.7617 102.647 40.0817 102.5C40.4017 102.353 40.6617 102.193 40.8617 102.02C41.0617 101.833 41.1951 101.693 41.2617 101.6C41.3817 101.427 41.4751 101.327 41.5417 101.3C41.6084 101.26 41.7151 101.24 41.8617 101.24H42.8217C42.9551 101.24 43.0617 101.28 43.1417 101.36C43.2351 101.427 43.2751 101.527 43.2617 101.66C43.2484 101.86 43.1417 102.107 42.9417 102.4C42.7417 102.68 42.4551 102.96 42.0817 103.24C41.7084 103.52 41.2551 103.753 40.7217 103.94C40.1884 104.113 39.5751 104.2 38.8817 104.2ZM36.1617 98.04H41.6417V97.98C41.6417 97.38 41.5284 96.8467 41.3017 96.38C41.0884 95.9133 40.7751 95.5467 40.3617 95.28C39.9484 95 39.4551 94.86 38.8817 94.86C38.3084 94.86 37.8151 95 37.4017 95.28C37.0017 95.5467 36.6951 95.9133 36.4817 96.38C36.2684 96.8467 36.1617 97.38 36.1617 97.98V98.04ZM46.3931 104C46.2598 104 46.1465 103.96 46.0531 103.88C45.9731 103.787 45.9331 103.673 45.9331 103.54V94.08C45.9331 93.9467 45.9731 93.8333 46.0531 93.74C46.1465 93.6467 46.2598 93.6 46.3931 93.6H47.3131C47.4465 93.6 47.5598 93.6467 47.6531 93.74C47.7465 93.8333 47.7931 93.9467 47.7931 94.08V94.96C48.0598 94.5067 48.4265 94.1667 48.8931 93.94C49.3598 93.7133 49.9198 93.6 50.5731 93.6H51.3731C51.5065 93.6 51.6131 93.6467 51.6931 93.74C51.7731 93.82 51.8131 93.9267 51.8131 94.06V94.88C51.8131 95.0133 51.7731 95.12 51.6931 95.2C51.6131 95.28 51.5065 95.32 51.3731 95.32H50.1731C49.4531 95.32 48.8865 95.5333 48.4731 95.96C48.0598 96.3733 47.8531 96.94 47.8531 97.66V103.54C47.8531 103.673 47.8065 103.787 47.7131 103.88C47.6198 103.96 47.5065 104 47.3731 104H46.3931ZM53.9908 104C53.8574 104 53.7441 103.96 53.6508 103.88C53.5708 103.787 53.5308 103.673 53.5308 103.54V94.06C53.5308 93.9267 53.5708 93.82 53.6508 93.74C53.7441 93.6467 53.8574 93.6 53.9908 93.6H54.8908C55.0241 93.6 55.1308 93.6467 55.2108 93.74C55.3041 93.82 55.3508 93.9267 55.3508 94.06V94.76C55.6574 94.3467 56.0441 94.02 56.5108 93.78C56.9774 93.5267 57.5374 93.4 58.1908 93.4C59.6974 93.3867 60.7641 94 61.3908 95.24C61.6974 94.68 62.1441 94.2333 62.7308 93.9C63.3174 93.5667 63.9841 93.4 64.7308 93.4C65.4241 93.4 66.0508 93.56 66.6108 93.88C67.1841 94.2 67.6308 94.6867 67.9508 95.34C68.2841 95.98 68.4508 96.7867 68.4508 97.76V103.54C68.4508 103.673 68.4041 103.787 68.3108 103.88C68.2308 103.96 68.1241 104 67.9908 104H67.0508C66.9174 104 66.8041 103.96 66.7108 103.88C66.6308 103.787 66.5908 103.673 66.5908 103.54V97.94C66.5908 97.1933 66.4841 96.6067 66.2708 96.18C66.0574 95.7533 65.7708 95.4533 65.4108 95.28C65.0508 95.1067 64.6574 95.02 64.2308 95.02C63.8841 95.02 63.5308 95.1067 63.1708 95.28C62.8108 95.4533 62.5108 95.7533 62.2708 96.18C62.0441 96.6067 61.9308 97.1933 61.9308 97.94V103.54C61.9308 103.673 61.8841 103.787 61.7908 103.88C61.7108 103.96 61.6041 104 61.4708 104H60.5308C60.3974 104 60.2841 103.96 60.1908 103.88C60.1108 103.787 60.0708 103.673 60.0708 103.54V97.94C60.0708 97.1933 59.9574 96.6067 59.7308 96.18C59.5041 95.7533 59.2108 95.4533 58.8508 95.28C58.4908 95.1067 58.1108 95.02 57.7108 95.02C57.3641 95.02 57.0108 95.1067 56.6508 95.28C56.2908 95.4533 55.9908 95.7533 55.7508 96.18C55.5241 96.6067 55.4108 97.1867 55.4108 97.92V103.54C55.4108 103.673 55.3641 103.787 55.2708 103.88C55.1908 103.96 55.0841 104 54.9508 104H53.9908ZM75.5642 104.2C74.5509 104.2 73.7042 104.007 73.0242 103.62C72.3442 103.233 71.8242 102.7 71.4642 102.02C71.1042 101.327 70.9042 100.54 70.8642 99.66C70.8509 99.4333 70.8442 99.1467 70.8442 98.8C70.8442 98.44 70.8509 98.1533 70.8642 97.94C70.9042 97.0467 71.1042 96.26 71.4642 95.58C71.8376 94.9 72.3642 94.3667 73.0442 93.98C73.7242 93.5933 74.5642 93.4 75.5642 93.4C76.5642 93.4 77.4042 93.5933 78.0842 93.98C78.7642 94.3667 79.2842 94.9 79.6442 95.58C80.0176 96.26 80.2242 97.0467 80.2642 97.94C80.2776 98.1533 80.2842 98.44 80.2842 98.8C80.2842 99.1467 80.2776 99.4333 80.2642 99.66C80.2242 100.54 80.0242 101.327 79.6642 102.02C79.3042 102.7 78.7842 103.233 78.1042 103.62C77.4242 104.007 76.5776 104.2 75.5642 104.2ZM75.5642 102.66C76.3909 102.66 77.0509 102.4 77.5442 101.88C78.0376 101.347 78.3042 100.573 78.3442 99.56C78.3576 99.36 78.3642 99.1067 78.3642 98.8C78.3642 98.4933 78.3576 98.24 78.3442 98.04C78.3042 97.0267 78.0376 96.26 77.5442 95.74C77.0509 95.2067 76.3909 94.94 75.5642 94.94C74.7376 94.94 74.0709 95.2067 73.5642 95.74C73.0709 96.26 72.8109 97.0267 72.7842 98.04C72.7709 98.24 72.7642 98.4933 72.7642 98.8C72.7642 99.1067 72.7709 99.36 72.7842 99.56C72.8109 100.573 73.0709 101.347 73.5642 101.88C74.0709 102.4 74.7376 102.66 75.5642 102.66ZM83.2486 104C83.1153 104 83.0019 103.96 82.9086 103.88C82.8286 103.787 82.7886 103.673 82.7886 103.54V94.08C82.7886 93.9467 82.8286 93.8333 82.9086 93.74C83.0019 93.6467 83.1153 93.6 83.2486 93.6H84.1686C84.3019 93.6 84.4153 93.6467 84.5086 93.74C84.6019 93.8333 84.6486 93.9467 84.6486 94.08V94.96C84.9153 94.5067 85.2819 94.1667 85.7486 93.94C86.2153 93.7133 86.7753 93.6 87.4286 93.6H88.2286C88.3619 93.6 88.4686 93.6467 88.5486 93.74C88.6286 93.82 88.6686 93.9267 88.6686 94.06V94.88C88.6686 95.0133 88.6286 95.12 88.5486 95.2C88.4686 95.28 88.3619 95.32 88.2286 95.32H87.0286C86.3086 95.32 85.7419 95.5333 85.3286 95.96C84.9153 96.3733 84.7086 96.94 84.7086 97.66V103.54C84.7086 103.673 84.6619 103.787 84.5686 103.88C84.4753 103.96 84.3619 104 84.2286 104H83.2486ZM90.8463 104C90.7129 104 90.5996 103.96 90.5063 103.88C90.4263 103.787 90.3863 103.673 90.3863 103.54V94.06C90.3863 93.9267 90.4263 93.82 90.5063 93.74C90.5996 93.6467 90.7129 93.6 90.8463 93.6H91.8063C91.9396 93.6 92.0463 93.6467 92.1263 93.74C92.2063 93.82 92.2463 93.9267 92.2463 94.06V103.54C92.2463 103.673 92.2063 103.787 92.1263 103.88C92.0463 103.96 91.9396 104 91.8063 104H90.8463ZM90.6863 91.66C90.5529 91.66 90.4396 91.62 90.3463 91.54C90.2663 91.4467 90.2262 91.3333 90.2262 91.2V90.12C90.2262 89.9867 90.2663 89.88 90.3463 89.8C90.4396 89.7067 90.5529 89.66 90.6863 89.66H91.9463C92.0796 89.66 92.1863 89.7067 92.2663 89.8C92.3596 89.88 92.4063 89.9867 92.4063 90.12V91.2C92.4063 91.3333 92.3596 91.4467 92.2663 91.54C92.1863 91.62 92.0796 91.66 91.9463 91.66H90.6863ZM99.11 104.2C98.2567 104.2 97.53 104.013 96.93 103.64C96.3433 103.253 95.8967 102.72 95.59 102.04C95.2833 101.36 95.13 100.58 95.13 99.7V94.06C95.13 93.9267 95.17 93.82 95.25 93.74C95.3433 93.6467 95.4567 93.6 95.59 93.6H96.59C96.7233 93.6 96.83 93.6467 96.91 93.74C97.0033 93.82 97.05 93.9267 97.05 94.06V99.6C97.05 101.587 97.9167 102.58 99.65 102.58C100.477 102.58 101.137 102.32 101.63 101.8C102.137 101.267 102.39 100.533 102.39 99.6V94.06C102.39 93.9267 102.43 93.82 102.51 93.74C102.603 93.6467 102.717 93.6 102.85 93.6H103.83C103.977 93.6 104.09 93.6467 104.17 93.74C104.25 93.82 104.29 93.9267 104.29 94.06V103.54C104.29 103.673 104.25 103.787 104.17 103.88C104.09 103.96 103.977 104 103.83 104H102.91C102.777 104 102.663 103.96 102.57 103.88C102.49 103.787 102.45 103.673 102.45 103.54V102.66C102.09 103.127 101.65 103.5 101.13 103.78C100.623 104.06 99.95 104.2 99.11 104.2ZM107.721 104C107.588 104 107.475 103.96 107.381 103.88C107.301 103.787 107.261 103.673 107.261 103.54V94.06C107.261 93.9267 107.301 93.82 107.381 93.74C107.475 93.6467 107.588 93.6 107.721 93.6H108.621C108.755 93.6 108.861 93.6467 108.941 93.74C109.035 93.82 109.081 93.9267 109.081 94.06V94.76C109.388 94.3467 109.775 94.02 110.241 93.78C110.708 93.5267 111.268 93.4 111.921 93.4C113.428 93.3867 114.495 94 115.121 95.24C115.428 94.68 115.875 94.2333 116.461 93.9C117.048 93.5667 117.715 93.4 118.461 93.4C119.155 93.4 119.781 93.56 120.341 93.88C120.915 94.2 121.361 94.6867 121.681 95.34C122.015 95.98 122.181 96.7867 122.181 97.76V103.54C122.181 103.673 122.135 103.787 122.041 103.88C121.961 103.96 121.855 104 121.721 104H120.781C120.648 104 120.535 103.96 120.441 103.88C120.361 103.787 120.321 103.673 120.321 103.54V97.94C120.321 97.1933 120.215 96.6067 120.001 96.18C119.788 95.7533 119.501 95.4533 119.141 95.28C118.781 95.1067 118.388 95.02 117.961 95.02C117.615 95.02 117.261 95.1067 116.901 95.28C116.541 95.4533 116.241 95.7533 116.001 96.18C115.775 96.6067 115.661 97.1933 115.661 97.94V103.54C115.661 103.673 115.615 103.787 115.521 103.88C115.441 103.96 115.335 104 115.201 104H114.261C114.128 104 114.015 103.96 113.921 103.88C113.841 103.787 113.801 103.673 113.801 103.54V97.94C113.801 97.1933 113.688 96.6067 113.461 96.18C113.235 95.7533 112.941 95.4533 112.581 95.28C112.221 95.1067 111.841 95.02 111.441 95.02C111.095 95.02 110.741 95.1067 110.381 95.28C110.021 95.4533 109.721 95.7533 109.481 96.18C109.255 96.6067 109.141 97.1867 109.141 97.92V103.54C109.141 103.673 109.095 103.787 109.001 103.88C108.921 103.96 108.815 104 108.681 104H107.721Z" fill="white"/>
</g>
<defs>
<linearGradient id="paint0_linear_1_15" x1="156.5" y1="-36" x2="0" y2="128" gradientUnits="userSpaceOnUse">
<stop stop-color="#1E45CF"/>
<stop offset="1" stop-color="#56E45B"/>
</linearGradient>
<clipPath id="clip0_1_15">
<rect width="128" height="128" fill="white"/>
</clipPath>
</defs>
</svg>
